<svg xmlns="http://www.w3.org/2000/svg" id="export" class="canvas" preserveAspectRatio="xMidYMid meet" style="position: absolute; margin: 0px;" width="341" height="732"><rect id="background" fill="#fff" pointer-events="all" width="341" height="732"/><g id="origin" transform="translate(15.46180419921875, 15.46180419921875) scale(1)"><g id="clusters" class="clusters"/><g id="edge-paths" class="edge-paths"><defs><marker id="arrowhead-vee" viewBox="0 0 10 10" refX="9" refY="5" markerUnits="strokeWidth" markerWidth="8" markerHeight="6" orient="auto" style="fill: rgb(0, 0, 0);"><path d="M 0 0 L 10 5 L 0 10 L 4 5 z" style="stroke-width: 1px;"/></marker><marker id="arrowhead-vee-select" viewBox="0 0 10 10" refX="9" refY="5" markerUnits="strokeWidth" markerWidth="8" markerHeight="6" orient="auto" style="fill: rgb(238, 0, 0);"><path d="M 0 0 L 10 5 L 0 10 L 4 5 z" style="stroke-width: 1px;"/></marker></defs><path id="edge-string_input" class="edge-path" d="M98.34689712524414,20.869998931884766L98.34689712524414,24.344998915990193C98.34689712524414,27.819998900095623,98.34689712524414,34.76999886830648,98.34689712524414,41.719998836517334C98.34689712524414,48.66999880472819,98.34689712524414,55.61999877293905,98.34689712524414,59.09499875704447L98.34689712524414,62.5699987411499" style="stroke: rgb(0, 0, 0); stroke-width: 1px; fill: none; marker-end: url(&quot;#arrowhead-vee&quot;);"/><path id="edge-flattened" class="edge-path" d="M98.34689712524414,104.48999691009521L98.34689712524414,106.15666357676189C98.34689712524414,107.82333024342854,98.34689712524414,111.15666357676189,98.34689712524414,114.48999691009521C98.34689712524414,117.82333024342854,98.34689712524414,121.15666357676189,98.34689712524414,122.82333024342854L98.34689712524414,124.48999691009521" style="stroke: rgb(0, 0, 0); stroke-width: 1px; fill: none; marker-end: url(&quot;#arrowhead-vee&quot;);"/><path id="edge-normalized" class="edge-path" d="M98.34689712524414,145.35999584197998L98.34689712524414,147.02666250864664C98.34689712524414,148.69332917531332,98.34689712524414,152.02666250864664,98.34689712524414,155.35999584197998C98.34689712524414,158.69332917531332,98.34689712524414,162.02666250864664,98.34689712524414,163.69332917531332L98.34689712524414,165.35999584197998" style="stroke: rgb(0, 0, 0); stroke-width: 1px; fill: none; marker-end: url(&quot;#arrowhead-vee&quot;);"/><path id="edge-tokenized" class="edge-path" d="M98.34689712524414,186.22999477386475L98.34689712524414,187.8966614405314C98.34689712524414,189.5633281071981,98.34689712524414,192.8966614405314,98.34689712524414,196.22999477386475C98.34689712524414,199.5633281071981,98.34689712524414,202.8966614405314,98.34689712524414,204.5633281071981L98.34689712524414,206.22999477386475" style="stroke: rgb(0, 0, 0); stroke-width: 1px; fill: none; marker-end: url(&quot;#arrowhead-vee&quot;);"/><path id="edge-flattened1" class="edge-path" d="M98.34689712524414,227.0999937057495L98.34689712524414,228.76666037241617C98.34689712524414,230.43332703908285,98.34689712524414,233.76666037241617,98.34689712524414,237.0999937057495C98.34689712524414,240.43332703908285,98.34689712524414,243.76666037241617,98.34689712524414,245.43332703908285L98.34689712524414,247.0999937057495" style="stroke: rgb(0, 0, 0); stroke-width: 1px; fill: none; marker-end: url(&quot;#arrowhead-vee&quot;);"/><path id="edge-output" class="edge-path" d="M98.34689712524414,267.9699926376343L98.34689712524414,269.63665930430096C98.34689712524414,271.3033259709676,98.34689712524414,274.63665930430096,98.34689712524414,277.9699926376343C98.34689712524414,281.3033259709676,98.34689712524414,284.63665930430096,98.34689712524414,286.3033259709676L98.34689712524414,287.9699926376343" style="stroke: rgb(0, 0, 0); stroke-width: 1px; fill: none; marker-end: url(&quot;#arrowhead-vee&quot;);"/><path id="edge-matmul_result" class="edge-path" d="M98.34689712524414,329.8899908065796L98.34689712524414,331.5566574732463C98.34689712524414,333.2233241399129,98.34689712524414,336.5566574732463,98.34689712524414,339.8899908065796C98.34689712524414,343.2233241399129,98.34689712524414,346.5566574732463,98.34689712524414,348.2233241399129L98.34689712524414,349.8899908065796" style="stroke: rgb(0, 0, 0); stroke-width: 1px; fill: none; marker-end: url(&quot;#arrowhead-vee&quot;);"/><path id="edge-sum_result" class="edge-path" d="M98.34689712524414,391.8099889755249L98.34689712524414,393.4766556421916C98.34689712524414,395.1433223088582,98.34689712524414,398.4766556421916,98.34689712524414,401.8099889755249C98.34689712524414,405.1433223088582,98.34689712524414,408.4766556421916,98.34689712524414,410.1433223088582L98.34689712524414,411.8099889755249" style="stroke: rgb(0, 0, 0); stroke-width: 1px; fill: none; marker-end: url(&quot;#arrowhead-vee&quot;);"/><path id="edge-sum_result" class="edge-path" d="M148.34689712524414,381.67936076160953L163.83766174316406,385.0344654639287C179.32842636108398,388.389570166248,210.30995559692383,395.0997795708865,225.80072021484375,400.12155093987235C241.29148483276367,405.1433223088582,241.29148483276367,408.4766556421916,241.29148483276367,410.1433223088582L241.29148483276367,411.8099889755249" style="stroke: rgb(0, 0, 0); stroke-width: 1px; fill: none; marker-end: url(&quot;#arrowhead-vee&quot;);"/><path id="edge-sum_result" class="edge-path" d="M48.34689712524414,389.6769431834722L42.97647349039713,391.69911748214764C37.60604985555013,393.7212917808231,26.86520258585612,397.76564037817406,21.494778951009113,403.1936479211732C16.12435531616211,408.62165546417236,16.12435531616211,415.4333219528198,16.12435531616211,422.2449884414673C16.12435531616211,429.05665493011475,16.12435531616211,435.8683214187622,16.12435531616211,444.43415451049805C16.12435531616211,452.9999876022339,16.12435531616211,463.3199872970581,16.12435531616211,473.6399869918823C16.12435531616211,483.95998668670654,16.12435531616211,494.27998638153076,20.666823256437308,502.86081949869794C25.209291196712503,511.44165261586505,34.294227077262896,518.2833191553751,38.8366950175381,521.7041524251302L43.37916295781329,525.1249856948853" style="stroke: rgb(0, 0, 0); stroke-width: 1px; fill: none; marker-end: url(&quot;#arrowhead-vee&quot;);"/><path id="edge-reduce_log_sum_exp_result" class="edge-path" d="M98.34689712524414,432.67998790740967L98.34689712524414,434.34665457407635C98.34689712524414,436.013321240743,98.34689712524414,439.34665457407635,98.34689712524414,442.67998790740967C98.34689712524414,446.013321240743,98.34689712524414,449.34665457407635,98.34689712524414,451.013321240743L98.34689712524414,452.67998790740967" style="stroke: rgb(0, 0, 0); stroke-width: 1px; fill: none; marker-end: url(&quot;#arrowhead-vee&quot;);"/><path id="edge-argmax_output" class="edge-path" d="M241.29148483276367,432.67998790740967L241.29148483276367,434.34665457407635C241.29148483276367,436.013321240743,241.29148483276367,439.34665457407635,241.29148483276367,442.67998790740967C241.29148483276367,446.013321240743,241.29148483276367,449.34665457407635,241.29148483276367,451.013321240743L241.29148483276367,452.67998790740967" style="stroke: rgb(0, 0, 0); stroke-width: 1px; fill: none; marker-end: url(&quot;#arrowhead-vee&quot;);"/><path id="edge-array_feature_extractor_result" class="edge-path" d="M241.29148483276367,494.599986076355L241.29148483276367,496.26665274302167C241.29148483276367,497.9333194096883,241.29148483276367,501.26665274302167,241.29148483276367,504.599986076355C241.29148483276367,507.9333194096883,241.29148483276367,511.26665274302167,241.29148483276367,512.9333194096884L241.29148483276367,514.599986076355" style="stroke: rgb(0, 0, 0); stroke-width: 1px; fill: none; marker-end: url(&quot;#arrowhead-vee&quot;);"/><path id="edge-reshaped_log_prob" class="edge-path" d="M98.34689712524414,494.599986076355L98.34689712524414,496.26665274302167C98.34689712524414,497.9333194096883,98.34689712524414,501.26665274302167,93.80442918496895,506.35415267944336C89.26196124469375,511.44165261586505,80.17702536414335,518.2833191553751,75.63455742386816,521.7041524251302L71.09208948359296,525.1249856948853" style="stroke: rgb(0, 0, 0); stroke-width: 1px; fill: none; marker-end: url(&quot;#arrowhead-vee&quot;);"/><path id="edge-output_label" class="edge-path" d="M241.29148483276367,556.5199842453003L241.29148483276367,559.9949842294058C241.29148483276367,563.4699842135111,241.29148483276367,570.419984181722,241.29148483276367,577.3699841499329C241.29148483276367,584.3199841181437,241.29148483276367,591.2699840863546,241.29148483276367,594.74498407046L241.29148483276367,598.2199840545654" style="stroke: rgb(0, 0, 0); stroke-width: 1px; fill: none; marker-end: url(&quot;#arrowhead-vee&quot;);"/><path id="edge-log_prob" class="edge-path" d="M57.235626220703125,545.99498462677L57.235626220703125,551.2241512139639C57.235626220703125,556.4533178011576,57.235626220703125,566.9116509755453,57.235626220703125,575.6158175468445C57.235626220703125,584.3199841181437,57.235626220703125,591.2699840863546,57.235626220703125,594.74498407046L57.235626220703125,598.2199840545654" style="stroke: rgb(0, 0, 0); stroke-width: 1px; fill: none; marker-end: url(&quot;#arrowhead-vee&quot;);"/><path id="edge-probabilities" class="edge-path" d="M57.235626220703125,619.0899829864502L57.235626220703125,620.7566496531168C57.235626220703125,622.4233163197836,57.235626220703125,625.7566496531168,57.235626220703125,629.0899829864502C57.235626220703125,632.4233163197836,57.235626220703125,635.7566496531168,57.235626220703125,637.4233163197836L57.235626220703125,639.0899829864502" style="stroke: rgb(0, 0, 0); stroke-width: 1px; fill: none; marker-end: url(&quot;#arrowhead-vee&quot;);"/><path id="edge-output_probability" class="edge-path" d="M57.235626220703125,659.959981918335L57.235626220703125,661.6266485850016C57.235626220703125,663.2933152516683,57.235626220703125,666.6266485850016,57.235626220703125,669.959981918335C57.235626220703125,673.2933152516683,57.235626220703125,676.6266485850016,57.235626220703125,678.2933152516683L57.235626220703125,679.959981918335" style="stroke: rgb(0, 0, 0); stroke-width: 1px; fill: none; marker-end: url(&quot;#arrowhead-vee&quot;);"/></g><g id="edge-labels" class="edge-labels"><g style="opacity: 1;" class="edge-label" id="edge-label-edge-string_input" transform="translate(113.37148094177246,41.719998836517334)"><g transform="translate(-10.02458381652832,-5.849999904632568)"><text style="font-family: -apple-system, BlinkMacSystemFont, &quot;Segoe WPC&quot;, &quot;Segoe UI&quot;, &quot;Ubuntu&quot;, &quot;Droid Sans&quot;, sans-serif, &quot;PingFang SC&quot;; font-size: 10px;"><tspan xml:space="preserve" dy="1em" x="1">?×1</tspan></text></g></g><g style="opacity: 1;" class="edge-label" id="edge-label-edge-output_label" transform="translate(248.9452347755432,577.3699841499329)"><g transform="translate(-2.653749942779541,-5.849999904632568)"><text style="font-family: -apple-system, BlinkMacSystemFont, &quot;Segoe WPC&quot;, &quot;Segoe UI&quot;, &quot;Ubuntu&quot;, &quot;Droid Sans&quot;, sans-serif, &quot;PingFang SC&quot;; font-size: 10px;"><tspan xml:space="preserve" dy="1em" x="1">?</tspan></text></g></g></g><g id="nodes" class="nodes"><g id="node-name-Reshape" class="node graph-node" style="opacity: 1;" transform="translate(98.34689712524414,83.52999782562256)"><g transform="translate(-50,-20.959999084472656)"><g class="node-item node-item-type node-item-type-shape" transform="translate(0,0)"><path d="M5,0h90a5,5 0 0 1 5,5v15.869999885559082a0,0 0 0 1 0,0h-100a0,0 0 0 1 0,0v-15.869999885559082a5,5 0 0 1 5,-5z" style="stroke: rgb(0, 0, 0); fill: rgb(108, 79, 71); stroke-width: 0px;"/><text x="6" y="14.230000495910645" style="font-family: -apple-system, BlinkMacSystemFont, &quot;Segoe WPC&quot;, &quot;Segoe UI&quot;, &quot;Ubuntu&quot;, &quot;Droid Sans&quot;, sans-serif, &quot;PingFang SC&quot;; font-size: 11px; text-rendering: geometricprecision; fill: rgb(255, 255, 255);">Reshape</text><title>Reshape</title></g><g class="node-attribute" transform="translate(0,20.869999885559082)"><path d="M0,0h100a0,0 0 0 1 0,0v16.050000190734863a5,5 0 0 1 -5,5h-90a5,5 0 0 1 -5,-5v-16.050000190734863a0,0 0 0 1 0,0z" style="stroke: rgb(0, 0, 0); fill: rgb(255, 255, 255); stroke-width: 0px;"/><text id="initializer-shape_tensor" xml:space="preserve" x="6" y="14.440000534057617" style="font-family: -apple-system, BlinkMacSystemFont, &quot;Segoe WPC&quot;, &quot;Segoe UI&quot;, &quot;Ubuntu&quot;, &quot;Droid Sans&quot;, sans-serif, &quot;PingFang SC&quot;; font-size: 9px; font-weight: normal; text-rendering: geometricprecision;"><title>int64[1]</title><tspan style="font-weight: bold;">shape</tspan><tspan>〈1〉</tspan></text><line class="node" x1="0" x2="100" y1="0" y2="0" style="stroke: rgb(51, 51, 51); fill: none; stroke-width: 1px;"/></g><path class="node border" d="M5,0h90a5,5 0 0 1 5,5v31.920000076293945a5,5 0 0 1 -5,5h-90a5,5 0 0 1 -5,-5v-31.920000076293945a5,5 0 0 1 5,-5z" style="stroke: rgb(51, 51, 51); fill: none; stroke-width: 1px;"/></g></g><g id="node-name-StringNormalizer" class="node graph-node" style="opacity: 1;" transform="translate(98.34689712524414,134.9249963760376)"><g transform="translate(-53.39570999145508,-10.434999465942383)"><g class="node-item node-item-type" transform="translate(0,0)"><path d="M5,0h96.79141998291016a5,5 0 0 1 5,5v10.869999885559082a5,5 0 0 1 -5,5h-96.79141998291016a5,5 0 0 1 -5,-5v-10.869999885559082a5,5 0 0 1 5,-5z" style="stroke: rgb(0, 0, 0); fill: rgb(0, 0, 0); stroke-width: 0px;"/><text x="6" y="14.230000495910645" style="font-family: -apple-system, BlinkMacSystemFont, &quot;Segoe WPC&quot;, &quot;Segoe UI&quot;, &quot;Ubuntu&quot;, &quot;Droid Sans&quot;, sans-serif, &quot;PingFang SC&quot;; font-size: 11px; text-rendering: geometricprecision; fill: rgb(255, 255, 255);">StringNormalizer</text><title>StringNormalizer</title></g><path class="node border" d="M5,0h96.79141998291016a5,5 0 0 1 5,5v10.869999885559082a5,5 0 0 1 -5,5h-96.79141998291016a5,5 0 0 1 -5,-5v-10.869999885559082a5,5 0 0 1 5,-5z" style="stroke: rgb(51, 51, 51); fill: none; stroke-width: 1px;"/></g></g><g id="node-name-Tokenizer" class="node graph-node" style="opacity: 1;" transform="translate(98.34689712524414,175.79499530792236)"><g transform="translate(-32.757415771484375,-10.434999465942383)"><g class="node-item node-item-type" transform="translate(0,0)"><path d="M5,0h55.514835357666016a5,5 0 0 1 5,5v10.869999885559082a5,5 0 0 1 -5,5h-55.514835357666016a5,5 0 0 1 -5,-5v-10.869999885559082a5,5 0 0 1 5,-5z" style="stroke: rgb(0, 0, 0); fill: rgb(0, 0, 0); stroke-width: 0px;"/><text x="6" y="14.230000495910645" style="font-family: -apple-system, BlinkMacSystemFont, &quot;Segoe WPC&quot;, &quot;Segoe UI&quot;, &quot;Ubuntu&quot;, &quot;Droid Sans&quot;, sans-serif, &quot;PingFang SC&quot;; font-size: 11px; text-rendering: geometricprecision; fill: rgb(255, 255, 255);">Tokenizer</text><title>Tokenizer</title></g><path class="node border" d="M5,0h55.514835357666016a5,5 0 0 1 5,5v10.869999885559082a5,5 0 0 1 -5,5h-55.514835357666016a5,5 0 0 1 -5,-5v-10.869999885559082a5,5 0 0 1 5,-5z" style="stroke: rgb(51, 51, 51); fill: none; stroke-width: 1px;"/></g></g><g id="node-name-Flatten" class="node graph-node" style="opacity: 1;" transform="translate(98.34689712524414,216.66499423980713)"><g transform="translate(-26.24449920654297,-10.434999465942383)"><g class="node-item node-item-type node-item-type-shape" transform="translate(0,0)"><path d="M5,0h42.48899841308594a5,5 0 0 1 5,5v10.869999885559082a5,5 0 0 1 -5,5h-42.48899841308594a5,5 0 0 1 -5,-5v-10.869999885559082a5,5 0 0 1 5,-5z" style="stroke: rgb(0, 0, 0); fill: rgb(108, 79, 71); stroke-width: 0px;"/><text x="6" y="14.230000495910645" style="font-family: -apple-system, BlinkMacSystemFont, &quot;Segoe WPC&quot;, &quot;Segoe UI&quot;, &quot;Ubuntu&quot;, &quot;Droid Sans&quot;, sans-serif, &quot;PingFang SC&quot;; font-size: 11px; text-rendering: geometricprecision; fill: rgb(255, 255, 255);">Flatten</text><title>Flatten</title></g><path class="node border" d="M5,0h42.48899841308594a5,5 0 0 1 5,5v10.869999885559082a5,5 0 0 1 -5,5h-42.48899841308594a5,5 0 0 1 -5,-5v-10.869999885559082a5,5 0 0 1 5,-5z" style="stroke: rgb(51, 51, 51); fill: none; stroke-width: 1px;"/></g></g><g id="node-name-TfIdfVectorizer" class="node graph-node" style="opacity: 1;" transform="translate(98.34689712524414,257.5349931716919)"><g transform="translate(-46.980873107910156,-10.434999465942383)"><g class="node-item node-item-type" transform="translate(0,0)"><path d="M5,0h83.96174621582031a5,5 0 0 1 5,5v10.869999885559082a5,5 0 0 1 -5,5h-83.96174621582031a5,5 0 0 1 -5,-5v-10.869999885559082a5,5 0 0 1 5,-5z" style="stroke: rgb(0, 0, 0); fill: rgb(0, 0, 0); stroke-width: 0px;"/><text x="6" y="14.230000495910645" style="font-family: -apple-system, BlinkMacSystemFont, &quot;Segoe WPC&quot;, &quot;Segoe UI&quot;, &quot;Ubuntu&quot;, &quot;Droid Sans&quot;, sans-serif, &quot;PingFang SC&quot;; font-size: 11px; text-rendering: geometricprecision; fill: rgb(255, 255, 255);">TfIdfVectorizer</text><title>TfIdfVectorizer</title></g><path class="node border" d="M5,0h83.96174621582031a5,5 0 0 1 5,5v10.869999885559082a5,5 0 0 1 -5,5h-83.96174621582031a5,5 0 0 1 -5,-5v-10.869999885559082a5,5 0 0 1 5,-5z" style="stroke: rgb(51, 51, 51); fill: none; stroke-width: 1px;"/></g></g><g id="node-name-MatMul" class="node graph-node" style="opacity: 1;" transform="translate(98.34689712524414,308.92999172210693)"><g transform="translate(-50,-20.959999084472656)"><g class="node-item node-item-type" transform="translate(0,0)"><path d="M5,0h90a5,5 0 0 1 5,5v15.869999885559082a0,0 0 0 1 0,0h-100a0,0 0 0 1 0,0v-15.869999885559082a5,5 0 0 1 5,-5z" style="stroke: rgb(0, 0, 0); fill: rgb(0, 0, 0); stroke-width: 0px;"/><text x="6" y="14.230000495910645" style="font-family: -apple-system, BlinkMacSystemFont, &quot;Segoe WPC&quot;, &quot;Segoe UI&quot;, &quot;Ubuntu&quot;, &quot;Droid Sans&quot;, sans-serif, &quot;PingFang SC&quot;; font-size: 11px; text-rendering: geometricprecision; fill: rgb(255, 255, 255);">MatMul</text><title>MatMul</title></g><g class="node-attribute" transform="translate(0,20.869999885559082)"><path d="M0,0h100a0,0 0 0 1 0,0v16.050000190734863a5,5 0 0 1 -5,5h-90a5,5 0 0 1 -5,-5v-16.050000190734863a0,0 0 0 1 0,0z" style="stroke: rgb(0, 0, 0); fill: rgb(255, 255, 255); stroke-width: 0px;"/><text id="initializer-feature_log_prob" xml:space="preserve" x="6" y="14.440000534057617" style="font-family: -apple-system, BlinkMacSystemFont, &quot;Segoe WPC&quot;, &quot;Segoe UI&quot;, &quot;Ubuntu&quot;, &quot;Droid Sans&quot;, sans-serif, &quot;PingFang SC&quot;; font-size: 9px; font-weight: normal; text-rendering: geometricprecision;"><title>float32[34808,17]</title><tspan style="font-weight: bold;">B</tspan><tspan>〈34808×17〉</tspan></text><line class="node" x1="0" x2="100" y1="0" y2="0" style="stroke: rgb(51, 51, 51); fill: none; stroke-width: 1px;"/></g><path class="node border" d="M5,0h90a5,5 0 0 1 5,5v31.920000076293945a5,5 0 0 1 -5,5h-90a5,5 0 0 1 -5,-5v-31.920000076293945a5,5 0 0 1 5,-5z" style="stroke: rgb(51, 51, 51); fill: none; stroke-width: 1px;"/></g></g><g id="node-name-Add" class="node graph-node" style="opacity: 1;" transform="translate(98.34689712524414,370.84998989105225)"><g transform="translate(-50,-20.959999084472656)"><g class="node-item node-item-type" transform="translate(0,0)"><path d="M5,0h90a5,5 0 0 1 5,5v15.869999885559082a0,0 0 0 1 0,0h-100a0,0 0 0 1 0,0v-15.869999885559082a5,5 0 0 1 5,-5z" style="stroke: rgb(0, 0, 0); fill: rgb(0, 0, 0); stroke-width: 0px;"/><text x="6" y="14.230000495910645" style="font-family: -apple-system, BlinkMacSystemFont, &quot;Segoe WPC&quot;, &quot;Segoe UI&quot;, &quot;Ubuntu&quot;, &quot;Droid Sans&quot;, sans-serif, &quot;PingFang SC&quot;; font-size: 11px; text-rendering: geometricprecision; fill: rgb(255, 255, 255);">Add</text><title>Add</title></g><g class="node-attribute" transform="translate(0,20.869999885559082)"><path d="M0,0h100a0,0 0 0 1 0,0v16.050000190734863a5,5 0 0 1 -5,5h-90a5,5 0 0 1 -5,-5v-16.050000190734863a0,0 0 0 1 0,0z" style="stroke: rgb(0, 0, 0); fill: rgb(255, 255, 255); stroke-width: 0px;"/><text id="initializer-class_log_prior" xml:space="preserve" x="6" y="14.440000534057617" style="font-family: -apple-system, BlinkMacSystemFont, &quot;Segoe WPC&quot;, &quot;Segoe UI&quot;, &quot;Ubuntu&quot;, &quot;Droid Sans&quot;, sans-serif, &quot;PingFang SC&quot;; font-size: 9px; font-weight: normal; text-rendering: geometricprecision;"><title>float32[1,17]</title><tspan style="font-weight: bold;">B</tspan><tspan>〈1×17〉</tspan></text><line class="node" x1="0" x2="100" y1="0" y2="0" style="stroke: rgb(51, 51, 51); fill: none; stroke-width: 1px;"/></g><path class="node border" d="M5,0h90a5,5 0 0 1 5,5v31.920000076293945a5,5 0 0 1 -5,5h-90a5,5 0 0 1 -5,-5v-31.920000076293945a5,5 0 0 1 5,-5z" style="stroke: rgb(51, 51, 51); fill: none; stroke-width: 1px;"/></g></g><g id="node-name-ReduceLogSumExp" class="node graph-node" style="opacity: 1;" transform="translate(98.34689712524414,422.2449884414673)"><g transform="translate(-59.72254180908203,-10.434999465942383)"><g class="node-item node-item-type" transform="translate(0,0)"><path d="M5,0h109.44508361816406a5,5 0 0 1 5,5v10.869999885559082a5,5 0 0 1 -5,5h-109.44508361816406a5,5 0 0 1 -5,-5v-10.869999885559082a5,5 0 0 1 5,-5z" style="stroke: rgb(0, 0, 0); fill: rgb(0, 0, 0); stroke-width: 0px;"/><text x="6" y="14.230000495910645" style="font-family: -apple-system, BlinkMacSystemFont, &quot;Segoe WPC&quot;, &quot;Segoe UI&quot;, &quot;Ubuntu&quot;, &quot;Droid Sans&quot;, sans-serif, &quot;PingFang SC&quot;; font-size: 11px; text-rendering: geometricprecision; fill: rgb(255, 255, 255);">ReduceLogSumExp</text><title>ReduceLogSumExp</title></g><path class="node border" d="M5,0h109.44508361816406a5,5 0 0 1 5,5v10.869999885559082a5,5 0 0 1 -5,5h-109.44508361816406a5,5 0 0 1 -5,-5v-10.869999885559082a5,5 0 0 1 5,-5z" style="stroke: rgb(51, 51, 51); fill: none; stroke-width: 1px;"/></g></g><g id="node-name-ArgMax" class="node graph-node" style="opacity: 1;" transform="translate(241.29148483276367,422.2449884414673)"><g transform="translate(-27.789541244506836,-10.434999465942383)"><g class="node-item node-item-type" transform="translate(0,0)"><path d="M5,0h45.57908248901367a5,5 0 0 1 5,5v10.869999885559082a5,5 0 0 1 -5,5h-45.57908248901367a5,5 0 0 1 -5,-5v-10.869999885559082a5,5 0 0 1 5,-5z" style="stroke: rgb(0, 0, 0); fill: rgb(0, 0, 0); stroke-width: 0px;"/><text x="6" y="14.230000495910645" style="font-family: -apple-system, BlinkMacSystemFont, &quot;Segoe WPC&quot;, &quot;Segoe UI&quot;, &quot;Ubuntu&quot;, &quot;Droid Sans&quot;, sans-serif, &quot;PingFang SC&quot;; font-size: 11px; text-rendering: geometricprecision; fill: rgb(255, 255, 255);">ArgMax</text><title>ArgMax</title></g><path class="node border" d="M5,0h45.57908248901367a5,5 0 0 1 5,5v10.869999885559082a5,5 0 0 1 -5,5h-45.57908248901367a5,5 0 0 1 -5,-5v-10.869999885559082a5,5 0 0 1 5,-5z" style="stroke: rgb(51, 51, 51); fill: none; stroke-width: 1px;"/></g></g><g id="node-name-ArrayFeatureExtractor" class="node graph-node" style="opacity: 1;" transform="translate(241.29148483276367,473.6399869918823)"><g transform="translate(-67.94458770751953,-20.959999084472656)"><g class="node-item node-item-type" transform="translate(0,0)"><path d="M5,0h125.88917541503906a5,5 0 0 1 5,5v15.869999885559082a0,0 0 0 1 0,0h-135.88917541503906a0,0 0 0 1 0,0v-15.869999885559082a5,5 0 0 1 5,-5z" style="stroke: rgb(0, 0, 0); fill: rgb(0, 0, 0); stroke-width: 0px;"/><text x="6" y="14.230000495910645" style="font-family: -apple-system, BlinkMacSystemFont, &quot;Segoe WPC&quot;, &quot;Segoe UI&quot;, &quot;Ubuntu&quot;, &quot;Droid Sans&quot;, sans-serif, &quot;PingFang SC&quot;; font-size: 11px; text-rendering: geometricprecision; fill: rgb(255, 255, 255);">ArrayFeatureExtractor</text><title>ArrayFeatureExtractor</title></g><g class="node-attribute" transform="translate(0,20.869999885559082)"><path d="M0,0h135.88917541503906a0,0 0 0 1 0,0v16.050000190734863a5,5 0 0 1 -5,5h-125.88917541503906a5,5 0 0 1 -5,-5v-16.050000190734863a0,0 0 0 1 0,0z" style="stroke: rgb(0, 0, 0); fill: rgb(255, 255, 255); stroke-width: 0px;"/><text id="initializer-classes" xml:space="preserve" x="6" y="14.440000534057617" style="font-family: -apple-system, BlinkMacSystemFont, &quot;Segoe WPC&quot;, &quot;Segoe UI&quot;, &quot;Ubuntu&quot;, &quot;Droid Sans&quot;, sans-serif, &quot;PingFang SC&quot;; font-size: 9px; font-weight: normal; text-rendering: geometricprecision;"><title>string[17]</title><tspan style="font-weight: bold;">X</tspan><tspan>〈17〉</tspan></text><line class="node" x1="0" x2="135.88917541503906" y1="0" y2="0" style="stroke: rgb(51, 51, 51); fill: none; stroke-width: 1px;"/></g><path class="node border" d="M5,0h125.88917541503906a5,5 0 0 1 5,5v31.920000076293945a5,5 0 0 1 -5,5h-125.88917541503906a5,5 0 0 1 -5,-5v-31.920000076293945a5,5 0 0 1 5,-5z" style="stroke: rgb(51, 51, 51); fill: none; stroke-width: 1px;"/></g></g><g id="node-name-Reshape1" class="node graph-node" style="opacity: 1;" transform="translate(98.34689712524414,473.6399869918823)"><g transform="translate(-50,-20.959999084472656)"><g class="node-item node-item-type node-item-type-shape" transform="translate(0,0)"><path d="M5,0h90a5,5 0 0 1 5,5v15.869999885559082a0,0 0 0 1 0,0h-100a0,0 0 0 1 0,0v-15.869999885559082a5,5 0 0 1 5,-5z" style="stroke: rgb(0, 0, 0); fill: rgb(108, 79, 71); stroke-width: 0px;"/><text x="6" y="14.230000495910645" style="font-family: -apple-system, BlinkMacSystemFont, &quot;Segoe WPC&quot;, &quot;Segoe UI&quot;, &quot;Ubuntu&quot;, &quot;Droid Sans&quot;, sans-serif, &quot;PingFang SC&quot;; font-size: 11px; text-rendering: geometricprecision; fill: rgb(255, 255, 255);">Reshape</text><title>Reshape1</title></g><g class="node-attribute" transform="translate(0,20.869999885559082)"><path d="M0,0h100a0,0 0 0 1 0,0v16.050000190734863a5,5 0 0 1 -5,5h-90a5,5 0 0 1 -5,-5v-16.050000190734863a0,0 0 0 1 0,0z" style="stroke: rgb(0, 0, 0); fill: rgb(255, 255, 255); stroke-width: 0px;"/><text id="initializer-shape_tensor1" xml:space="preserve" x="6" y="14.440000534057617" style="font-family: -apple-system, BlinkMacSystemFont, &quot;Segoe WPC&quot;, &quot;Segoe UI&quot;, &quot;Ubuntu&quot;, &quot;Droid Sans&quot;, sans-serif, &quot;PingFang SC&quot;; font-size: 9px; font-weight: normal; text-rendering: geometricprecision;"><title>int64[2]</title><tspan style="font-weight: bold;">shape</tspan><tspan>〈2〉</tspan></text><line class="node" x1="0" x2="100" y1="0" y2="0" style="stroke: rgb(51, 51, 51); fill: none; stroke-width: 1px;"/></g><path class="node border" d="M5,0h90a5,5 0 0 1 5,5v31.920000076293945a5,5 0 0 1 -5,5h-90a5,5 0 0 1 -5,-5v-31.920000076293945a5,5 0 0 1 5,-5z" style="stroke: rgb(51, 51, 51); fill: none; stroke-width: 1px;"/></g></g><g id="node-name-Reshape2" class="node graph-node" style="opacity: 1;" transform="translate(241.29148483276367,535.5599851608276)"><g transform="translate(-50,-20.959999084472656)"><g class="node-item node-item-type node-item-type-shape" transform="translate(0,0)"><path d="M5,0h90a5,5 0 0 1 5,5v15.869999885559082a0,0 0 0 1 0,0h-100a0,0 0 0 1 0,0v-15.869999885559082a5,5 0 0 1 5,-5z" style="stroke: rgb(0, 0, 0); fill: rgb(108, 79, 71); stroke-width: 0px;"/><text x="6" y="14.230000495910645" style="font-family: -apple-system, BlinkMacSystemFont, &quot;Segoe WPC&quot;, &quot;Segoe UI&quot;, &quot;Ubuntu&quot;, &quot;Droid Sans&quot;, sans-serif, &quot;PingFang SC&quot;; font-size: 11px; text-rendering: geometricprecision; fill: rgb(255, 255, 255);">Reshape</text><title>Reshape2</title></g><g class="node-attribute" transform="translate(0,20.869999885559082)"><path d="M0,0h100a0,0 0 0 1 0,0v16.050000190734863a5,5 0 0 1 -5,5h-90a5,5 0 0 1 -5,-5v-16.050000190734863a0,0 0 0 1 0,0z" style="stroke: rgb(0, 0, 0); fill: rgb(255, 255, 255); stroke-width: 0px;"/><text id="initializer-shape_tensor" xml:space="preserve" x="6" y="14.440000534057617" style="font-family: -apple-system, BlinkMacSystemFont, &quot;Segoe WPC&quot;, &quot;Segoe UI&quot;, &quot;Ubuntu&quot;, &quot;Droid Sans&quot;, sans-serif, &quot;PingFang SC&quot;; font-size: 9px; font-weight: normal; text-rendering: geometricprecision;"><title>int64[1]</title><tspan style="font-weight: bold;">shape</tspan><tspan>〈1〉</tspan></text><line class="node" x1="0" x2="100" y1="0" y2="0" style="stroke: rgb(51, 51, 51); fill: none; stroke-width: 1px;"/></g><path class="node border" d="M5,0h90a5,5 0 0 1 5,5v31.920000076293945a5,5 0 0 1 -5,5h-90a5,5 0 0 1 -5,-5v-31.920000076293945a5,5 0 0 1 5,-5z" style="stroke: rgb(51, 51, 51); fill: none; stroke-width: 1px;"/></g></g><g id="node-name-Sub" class="node graph-node" style="opacity: 1;" transform="translate(57.235626220703125,535.5599851608276)"><g transform="translate(-17.46787452697754,-10.434999465942383)"><g class="node-item node-item-type" transform="translate(0,0)"><path d="M5,0h24.935749053955078a5,5 0 0 1 5,5v10.869999885559082a5,5 0 0 1 -5,5h-24.935749053955078a5,5 0 0 1 -5,-5v-10.869999885559082a5,5 0 0 1 5,-5z" style="stroke: rgb(0, 0, 0); fill: rgb(0, 0, 0); stroke-width: 0px;"/><text x="6" y="14.230000495910645" style="font-family: -apple-system, BlinkMacSystemFont, &quot;Segoe WPC&quot;, &quot;Segoe UI&quot;, &quot;Ubuntu&quot;, &quot;Droid Sans&quot;, sans-serif, &quot;PingFang SC&quot;; font-size: 11px; text-rendering: geometricprecision; fill: rgb(255, 255, 255);">Sub</text><title>Sub</title></g><path class="node border" d="M5,0h24.935749053955078a5,5 0 0 1 5,5v10.869999885559082a5,5 0 0 1 -5,5h-24.935749053955078a5,5 0 0 1 -5,-5v-10.869999885559082a5,5 0 0 1 5,-5z" style="stroke: rgb(51, 51, 51); fill: none; stroke-width: 1px;"/></g></g><g id="node-name-Exp" class="node graph-node" style="opacity: 1;" transform="translate(57.235626220703125,608.6549835205078)"><g transform="translate(-17.221290588378906,-10.434999465942383)"><g class="node-item node-item-type" transform="translate(0,0)"><path d="M5,0h24.442583084106445a5,5 0 0 1 5,5v10.869999885559082a5,5 0 0 1 -5,5h-24.442583084106445a5,5 0 0 1 -5,-5v-10.869999885559082a5,5 0 0 1 5,-5z" style="stroke: rgb(0, 0, 0); fill: rgb(0, 0, 0); stroke-width: 0px;"/><text x="6" y="14.230000495910645" style="font-family: -apple-system, BlinkMacSystemFont, &quot;Segoe WPC&quot;, &quot;Segoe UI&quot;, &quot;Ubuntu&quot;, &quot;Droid Sans&quot;, sans-serif, &quot;PingFang SC&quot;; font-size: 11px; text-rendering: geometricprecision; fill: rgb(255, 255, 255);">Exp</text><title>Exp</title></g><path class="node border" d="M5,0h24.442583084106445a5,5 0 0 1 5,5v10.869999885559082a5,5 0 0 1 -5,5h-24.442583084106445a5,5 0 0 1 -5,-5v-10.869999885559082a5,5 0 0 1 5,-5z" style="stroke: rgb(51, 51, 51); fill: none; stroke-width: 1px;"/></g></g><g id="node-name-ZipMap" class="node graph-node" style="opacity: 1;" transform="translate(57.235626220703125,649.5249824523926)"><g transform="translate(-27.39445686340332,-10.434999465942383)"><g class="node-item node-item-type" transform="translate(0,0)"><path d="M5,0h44.78891372680664a5,5 0 0 1 5,5v10.869999885559082a5,5 0 0 1 -5,5h-44.78891372680664a5,5 0 0 1 -5,-5v-10.869999885559082a5,5 0 0 1 5,-5z" style="stroke: rgb(0, 0, 0); fill: rgb(0, 0, 0); stroke-width: 0px;"/><text x="6" y="14.230000495910645" style="font-family: -apple-system, BlinkMacSystemFont, &quot;Segoe WPC&quot;, &quot;Segoe UI&quot;, &quot;Ubuntu&quot;, &quot;Droid Sans&quot;, sans-serif, &quot;PingFang SC&quot;; font-size: 11px; text-rendering: geometricprecision; fill: rgb(255, 255, 255);">ZipMap</text><title>ZipMap</title></g><path class="node border" d="M5,0h44.78891372680664a5,5 0 0 1 5,5v10.869999885559082a5,5 0 0 1 -5,5h-44.78891372680664a5,5 0 0 1 -5,-5v-10.869999885559082a5,5 0 0 1 5,-5z" style="stroke: rgb(51, 51, 51); fill: none; stroke-width: 1px;"/></g></g><g id="input-name-string_input" class="node graph-input" style="opacity: 1;" transform="matrix(1, 0, 0, 1, 98.3469, 10.435)"><g transform="translate(-39.68512725830078,-10.434999465942383)"><g class="node-item graph-item-input" transform="translate(0,0)"><path d="M5,0h69.37025451660156a5,5 0 0 1 5,5v10.869999885559082a5,5 0 0 1 -5,5h-69.37025451660156a5,5 0 0 1 -5,-5v-10.869999885559082a5,5 0 0 1 5,-5z" style="stroke: rgb(0, 0, 0); fill: rgb(238, 238, 238); stroke-width: 0px;"/><text x="6" y="14.230000495910645" style="font-family: -apple-system, BlinkMacSystemFont, &quot;Segoe WPC&quot;, &quot;Segoe UI&quot;, &quot;Ubuntu&quot;, &quot;Droid Sans&quot;, sans-serif, &quot;PingFang SC&quot;; font-size: 11px; text-rendering: geometricprecision;">string_input</text><title>string[,1]</title></g><path class="node border" d="M5,0h69.37025451660156a5,5 0 0 1 5,5v10.869999885559082a5,5 0 0 1 -5,5h-69.37025451660156a5,5 0 0 1 -5,-5v-10.869999885559082a5,5 0 0 1 5,-5z" style="stroke: rgb(51, 51, 51); fill: none; stroke-width: 1px;"/></g></g><g class="node" style="opacity: 1;" transform="translate(241.29148483276367,608.6549835205078)"><g transform="translate(-41.19212341308594,-10.434999465942383)"><g class="node-item graph-item-output" transform="translate(0,0)"><path d="M5,0h72.38424682617188a5,5 0 0 1 5,5v10.869999885559082a5,5 0 0 1 -5,5h-72.38424682617188a5,5 0 0 1 -5,-5v-10.869999885559082a5,5 0 0 1 5,-5z" style="stroke: rgb(0, 0, 0); fill: rgb(238, 238, 238); stroke-width: 0px;"/><text x="6" y="14.230000495910645" style="font-family: -apple-system, BlinkMacSystemFont, &quot;Segoe WPC&quot;, &quot;Segoe UI&quot;, &quot;Ubuntu&quot;, &quot;Droid Sans&quot;, sans-serif, &quot;PingFang SC&quot;; font-size: 11px; text-rendering: geometricprecision;">output_label</text><title>string[]</title></g><path class="node border" d="M5,0h72.38424682617188a5,5 0 0 1 5,5v10.869999885559082a5,5 0 0 1 -5,5h-72.38424682617188a5,5 0 0 1 -5,-5v-10.869999885559082a5,5 0 0 1 5,-5z" style="stroke: rgb(51, 51, 51); fill: none; stroke-width: 1px;"/></g></g><g class="node" style="opacity: 1;" transform="translate(57.235626220703125,690.3949813842773)"><g transform="translate(-57.235626220703125,-10.434999465942383)"><g class="node-item graph-item-output" transform="translate(0,0)"><path d="M5,0h104.47125244140625a5,5 0 0 1 5,5v10.869999885559082a5,5 0 0 1 -5,5h-104.47125244140625a5,5 0 0 1 -5,-5v-10.869999885559082a5,5 0 0 1 5,-5z" style="stroke: rgb(0, 0, 0); fill: rgb(238, 238, 238); stroke-width: 0px;"/><text x="6" y="14.230000495910645" style="font-family: -apple-system, BlinkMacSystemFont, &quot;Segoe WPC&quot;, &quot;Segoe UI&quot;, &quot;Ubuntu&quot;, &quot;Droid Sans&quot;, sans-serif, &quot;PingFang SC&quot;; font-size: 11px; text-rendering: geometricprecision;">output_probability</text><title>sequence&lt;map&lt;string,float32&gt;&gt;</title></g><path class="node border" d="M5,0h104.47125244140625a5,5 0 0 1 5,5v10.869999885559082a5,5 0 0 1 -5,5h-104.47125244140625a5,5 0 0 1 -5,-5v-10.869999885559082a5,5 0 0 1 5,-5z" style="stroke: rgb(51, 51, 51); fill: none; stroke-width: 1px;"/></g></g></g></g></svg>